<mxfile host="65bd71144e">
    <diagram id="dzdNqzZJpYT2-3P6Uz1u" name="第 1 页">
        <mxGraphModel dx="1723" dy="1152" grid="1" gridSize="10" guides="1" tooltips="1" connect="1" arrows="1" fold="1" page="1" pageScale="1" pageWidth="827" pageHeight="1169" math="0" shadow="0">
            <root>
                <mxCell id="0"/>
                <mxCell id="1" parent="0"/>
                <mxCell id="5" value="useEffect" style="rounded=1;whiteSpace=wrap;html=1;fontSize=14;" vertex="1" parent="1">
                    <mxGeometry x="240" y="200" width="200" height="60" as="geometry"/>
                </mxCell>
                <mxCell id="6" value="useLayoutEffect" style="rounded=1;whiteSpace=wrap;html=1;fontSize=14;" vertex="1" parent="1">
                    <mxGeometry x="520" y="200" width="200" height="60" as="geometry"/>
                </mxCell>
                <mxCell id="7" value="before mutation" style="rounded=1;whiteSpace=wrap;html=1;fontSize=14;" vertex="1" parent="1">
                    <mxGeometry x="40" y="320" width="120" height="60" as="geometry"/>
                </mxCell>
                <mxCell id="8" value="mutation" style="rounded=1;whiteSpace=wrap;html=1;fontSize=14;" vertex="1" parent="1">
                    <mxGeometry x="40" y="440" width="120" height="60" as="geometry"/>
                </mxCell>
                <mxCell id="9" value="layout" style="rounded=1;whiteSpace=wrap;html=1;fontSize=14;" vertex="1" parent="1">
                    <mxGeometry x="40" y="560" width="120" height="60" as="geometry"/>
                </mxCell>
                <mxCell id="10" value="commit最后" style="rounded=1;whiteSpace=wrap;html=1;fontSize=14;" vertex="1" parent="1">
                    <mxGeometry x="40" y="680" width="120" height="60" as="geometry"/>
                </mxCell>
                <mxCell id="11" value="调度flushPassiveEffects" style="rounded=1;whiteSpace=wrap;html=1;fontSize=14;" vertex="1" parent="1">
                    <mxGeometry x="240" y="320" width="200" height="60" as="geometry"/>
                </mxCell>
                <mxCell id="12" value="无" style="rounded=1;whiteSpace=wrap;html=1;fontSize=14;" vertex="1" parent="1">
                    <mxGeometry x="520" y="320" width="200" height="60" as="geometry"/>
                </mxCell>
                <mxCell id="13" value="无" style="rounded=1;whiteSpace=wrap;html=1;fontSize=14;" vertex="1" parent="1">
                    <mxGeometry x="240" y="440" width="200" height="60" as="geometry"/>
                </mxCell>
                <mxCell id="14" value="执行destroy" style="rounded=1;whiteSpace=wrap;html=1;fontSize=14;" vertex="1" parent="1">
                    <mxGeometry x="520" y="440" width="200" height="60" as="geometry"/>
                </mxCell>
                <mxCell id="15" value="将副作用effect&lt;br&gt;添加到执行队列" style="rounded=1;whiteSpace=wrap;html=1;fontSize=14;" vertex="1" parent="1">
                    <mxGeometry x="240" y="560" width="200" height="60" as="geometry"/>
                </mxCell>
                <mxCell id="16" value="执行create" style="rounded=1;whiteSpace=wrap;html=1;fontSize=14;" vertex="1" parent="1">
                    <mxGeometry x="520" y="560" width="200" height="60" as="geometry"/>
                </mxCell>
                <mxCell id="17" value="执行flushPassiveEffects&lt;br&gt;遍历副作用队列&lt;br&gt;执行destory和create" style="rounded=1;whiteSpace=wrap;html=1;fontSize=14;" vertex="1" parent="1">
                    <mxGeometry x="240" y="680" width="200" height="60" as="geometry"/>
                </mxCell>
                <mxCell id="18" value="无" style="rounded=1;whiteSpace=wrap;html=1;fontSize=14;" vertex="1" parent="1">
                    <mxGeometry x="520" y="680" width="200" height="60" as="geometry"/>
                </mxCell>
            </root>
        </mxGraphModel>
    </diagram>
</mxfile>